<?xml version="1.0" encoding="utf-8"?>
<!-- Generator: Adobe Illustrator 25.2.1, SVG Export Plug-In . SVG Version: 6.00 Build 0)  -->
<svg version="1.1" id="Layer_1" xmlns="http://www.w3.org/2000/svg" xmlns:xlink="http://www.w3.org/1999/xlink" x="0px" y="0px"
	 viewBox="0 0 56 56" style="enable-background:new 0 0 56 56;" xml:space="preserve">
<style type="text/css">
	.st0{opacity:0.39;fill:#FFFFFF;enable-background:new    ;}
	.st1{fill:#FFFFFF;}
</style>
<g id="Layer_1_1_">
	<path class="st0" d="M-1578.8,1430.1c-1.3,3.6-2.5,7.2-3.6,10.9c-3.5,11.2-6.4,22.4-8.6,33.8v-24.9c1.7-3,3.5-5.9,5.3-8.9
		C-1583.5,1437.4-1581.2,1433.7-1578.8,1430.1z"/>
	<path class="st0" d="M1228.2,1441h-7.4c-2.5-8.8-5.4-17.5-8.7-26.1C1217.8,1423.5,1223.2,1432.2,1228.2,1441z"/>
	<g>
		<g>
			<path class="st1" d="M-1856.3,1642.9"/>
		</g>
	</g>
	<g>
		<path class="st1" d="M56,27.9c0,2.8-0.4,5.5-1.2,8l0,0C51.3,47.5,40.2,56,27.1,56C16.6,56,7.4,50.6,2.4,42.6c0,0,0,0,0-0.1l0,0
			c-0.5-0.9,0.2-2,1.2-2c0.9,0,1.8,0,2.6,0c7.1-0.1,14.2,0,21.2-0.4c7.9-0.5,14.2-4,18.1-10.9c5.3-9.4,2-21.4-7.3-27.1l0,0
			C48.6,6.3,56,16.2,56,27.9z"/>
		<path class="st1" d="M31.6,22.5c-2,0.7-4.2,1-6.3,1.1c-6.2,0.1-13.7,0-20.5,0c-3.4,0-5.7-3.4-4.4-6.4c1.3-3.1,3.2-5.9,5.5-8.3
			C6.8,8,8.1,7.4,9.4,7.4c4.3,0,9.3,0,13.7,0c0.3,0,0.6,0,0.9,0c0.1,0,0.3,0,0.4,0c0.2,0,0.4,0,0.6,0c0.1,0,0.3,0,0.4,0l0,0
			c0.2,0,0.4,0,0.6,0c0.1,0,0.3,0,0.4,0c0.2,0,0.4,0,0.5,0s0.1,0,0.2,0l0,0c0.1,0,0.1,0,0.2,0l0,0l0,0c0.2,0,0.4,0,0.7,0
			c1.5-0.1,2.8-0.8,3.5-2.1c1-1.7,0.5-3.8-1-5c-0.1-0.1-0.2-0.1-0.2-0.2c0.1,0,0.1,0,0.2,0c0.3,0.1,0.6,0.2,0.9,0.2l0,0
			c4,1.3,6.6,3.9,7.7,8C40.8,14.4,37.7,20.3,31.6,22.5z"/>
	</g>
</g>
<g id="Layer_2_1_">
</g>
</svg>
